{"title":"Easy Virture(1928)Mp-4[DaScubaDude]","uid":12609658,"size":801943608,"categoryP":"video","categoryS":"movies","magnet":"?xt=urn:btih:bea0e77afd50660c695af32186c5f910e523bf7f&amp;dn=Easy+Virture%281928%29Mp-4%5BDaScubaDude%5D&amp;tr=udp%3A%2F%2Ftracker.leechers-paradise.org%3A6969&amp;tr=udp%3A%2F%2Fzer0day.ch%3A1337&amp;tr=udp%3A%2F%2Fopen.demonii.com%3A1337&amp;tr=udp%3A%2F%2Ftracker.coppersurfer.tk%3A6969&amp;tr=udp%3A%2F%2Fexodus.desync.com%3A6969","seeders":0,"leechers":0,"uploader":"dascuba","files":1,"time":1445444339,"description":"Easy Virtue (1928)\r\nNot Rated  |  80 min  |  Romance, Thriller  |  June 1928 (USA)\r\n5.7 Your rating:   -/10   Ratings: 5.7/10 from 1,766 users   \r\nReviews: 26 user | 25 critic\r\nA divorcée hides her scandalous past from her new husband and his family.\r\n\r\nDirector: Alfred Hitchcock\r\nWriters: Noel Coward (adapted from the play by), Eliot Stannard (scenario)\r\nStars: Isabel Jeans, Franklin Dyall, Eric Bransby Williams\r\n\r\n General\r\nComplete name                            : C:Easy VirtureBLACKMAIL_Title5.mp4\r\nFormat                                   : MPEG-4\r\nFormat profile                           : Base Media\r\nCodec ID                                 : isom\r\nFile size                                : 765 MiB\r\nDuration                                 : 1h 20mn\r\nOverall bit rate                         : 1 333 Kbps\r\nMovie name                               : BLACKMAIL\r\nWriting application                      : Lavf54.6.100\r\n\r\nVideo\r\nID                                       : 1\r\nFormat                                   : AVC\r\nFormat/Info                              : Advanced Video Codec\r\nFormat profile                           :   \r\nFormat settings, CABAC                   : No\r\nFormat settings, ReFrames                : 6 frames\r\nCodec ID                                 : avc1\r\nCodec ID/Info                            : Advanced Video Coding\r\nDuration                                 : 1h 20mn\r\nBit rate                                 : 1 198 Kbps\r\nWidth                                    : 720 pixels\r\nHeight                                   : 540 pixels\r\nDisplay aspect ratio                     : 4:3\r\nFrame rate mode                          : Constant\r\nFrame rate                               : 29.970 fps\r\nColor space                              : YUV\r\nChroma subsampling                       : 4:2:0\r\nBit depth                                : 8 bits\r\nScan type                                : Progressive\r\nBits/(Pixel*Frame)                       : 0.103\r\nStream size                              : 687 MiB (90%)\r\n\r\nAudio\r\nID                                       : 2\r\nFormat                                   : AAC\r\nFormat/Info                              : Advanced Audio Codec\r\nFormat profile                           : LC\r\nCodec ID                                 : 40\r\nDuration                                 : 1h 20mn\r\nBit rate mode                            : Constant\r\nBit rate                                 : 128 Kbps\r\nChannel(s)                               : 2 channels\r\nChannel positions                        : Front: L R\r\nSampling rate                            : 44.1 KHz\r\nCompression mode                         : Lossy\r\nStream size                              : 73.4 MiB (10%)","torrent":{"xt":"urn:btih:bea0e77afd50660c695af32186c5f910e523bf7f","amp;dn":"Easy+Virture%281928%29Mp-4%5BDaScubaDude%5D","amp;tr":["udp%3A%2F%2Ftracker.leechers-paradise.org%3A6969","udp%3A%2F%2Fzer0day.ch%3A1337","udp%3A%2F%2Fopen.demonii.com%3A1337","udp%3A%2F%2Ftracker.coppersurfer.tk%3A6969","udp%3A%2F%2Fexodus.desync.com%3A6969"],"infoHash":"bea0e77afd50660c695af32186c5f910e523bf7f","infoHashBuffer":{"type":"Buffer","data":[190,160,231,122,253,80,102,12,105,90,243,33,134,197,249,16,229,35,191,127]},"announce":[],"urlList":[]}}